<svg width="153" height="35" viewBox="0 0 153 35" fill="none" xmlns="http://www.w3.org/2000/svg">
<path d="M67.0628 9.49631H76.2867C76.8809 9.49631 77.3957 9.08457 77.5263 8.50494L77.8767 6.95035C78.0557 6.15578 77.4515 5.40027 76.637 5.40027H64.2959C63.7037 5.40027 63.1901 5.80926 63.0574 6.38634L59.1994 23.1713C59.0165 23.9672 59.6211 24.7267 60.4379 24.7267H72.8611C73.452 24.7267 73.965 24.3192 74.0988 23.7436L74.4601 22.189C74.6452 21.3922 74.0403 20.6306 73.2223 20.6306H64.5244L67.0628 9.49631Z" fill="white"/>
<path d="M95.5829 8.50494C95.4522 9.08457 94.9374 9.49631 94.3432 9.49631H85.1193L82.581 20.6306H91.2788C92.0968 20.6306 92.7018 21.3922 92.5166 22.189L92.1553 23.7436C92.0215 24.3192 91.5086 24.7267 90.9176 24.7267H78.4944C77.6776 24.7267 77.073 23.9672 77.2559 23.1713L81.114 6.38634C81.2466 5.80926 81.7603 5.40027 82.3524 5.40027H94.6935C95.508 5.40027 96.1122 6.15578 95.9332 6.95035L95.5829 8.50494Z" fill="white"/>
<path fill-rule="evenodd" clip-rule="evenodd" d="M100.409 5.40027C99.8168 5.40027 99.3031 5.80925 99.1705 6.38634L95.3124 23.1713C95.1295 23.9672 95.7341 24.7267 96.5509 24.7267H98.6732C99.2656 24.7267 99.7794 24.3173 99.9118 23.7399L101.041 18.8134H105.83C111.108 18.8134 114.714 15.6115 114.714 11.1693C114.714 7.62136 112.06 5.40027 108.166 5.40027H100.409ZM101.964 14.8327L103.205 9.46746H107.445C109.06 9.46746 109.897 10.304 109.897 11.6309C109.897 13.5058 108.224 14.8327 106.003 14.8327H101.964Z" fill="white"/>
<path d="M132.907 8.50494C132.777 9.08457 132.262 9.49631 131.668 9.49631H122.444L119.905 20.6306H128.603C129.421 20.6306 130.026 21.3922 129.841 22.189L129.48 23.7436C129.346 24.3192 128.833 24.7267 128.242 24.7267H115.819C115.002 24.7267 114.397 23.9672 114.58 23.1713L118.438 6.38634C118.571 5.80926 119.085 5.40027 119.677 5.40027H132.018C132.832 5.40027 133.437 6.15578 133.257 6.95035L132.907 8.50494Z" fill="white"/>
<path fill-rule="evenodd" clip-rule="evenodd" d="M152.183 10.8232C152.183 7.41944 149.702 5.40027 145.837 5.40027H137.733C137.141 5.40027 136.627 5.80925 136.495 6.38634L132.637 23.1713C132.454 23.9672 133.058 24.7267 133.875 24.7267H135.999C136.591 24.7267 137.104 24.318 137.237 23.7413L138.539 18.0922H141.452L144.613 24.0514C144.833 24.4669 145.265 24.7267 145.736 24.7267H148.104C149.076 24.7267 149.688 23.6789 149.21 22.8319L146.327 17.7172C149.875 16.7653 152.183 14.1116 152.183 10.8232ZM139.462 14.1116L140.529 9.46746H145.058C146.442 9.46746 147.365 10.1021 147.365 11.3424C147.365 12.9289 145.894 14.1116 143.587 14.1116H139.462Z" fill="white"/>
<path d="M66.1789 13.131C65.5847 13.131 65.0698 13.5427 64.9392 14.1224L64.6409 15.4462C64.4618 16.2408 65.066 16.9963 65.8805 16.9963H73.7245C74.316 16.9963 74.8293 16.5882 74.9626 16.012L75.2688 14.6882C75.4531 13.8917 74.8483 13.131 74.0308 13.131H66.1789Z" fill="white"/>
<path d="M83.3715 16.9963C82.557 16.9963 81.9528 16.2408 82.1319 15.4462L82.4302 14.1224C82.5608 13.5427 83.0757 13.131 83.6698 13.131H92.0873C92.9048 13.131 93.5096 13.8917 93.3253 14.6882L93.0191 16.012C92.8858 16.5882 92.3725 16.9963 91.7811 16.9963H83.3715Z" fill="white"/>
<path d="M120.026 15.4462C119.847 16.2408 120.451 16.9963 121.265 16.9963H129.105C129.697 16.9963 130.21 16.5882 130.343 16.012L130.65 14.6882C130.834 13.8917 130.229 13.131 129.412 13.131H121.564C120.97 13.131 120.455 13.5427 120.324 14.1224L120.026 15.4462Z" fill="white"/>
<path fill-rule="evenodd" clip-rule="evenodd" d="M54.8541 14.8615C56.4117 14.7173 59.1232 12.9578 59.1232 9.64054C59.1232 7.0733 57.2194 5.40027 54.1618 5.40027H45.3647C44.7732 5.40027 44.26 5.80835 44.1267 6.38459L40.2436 23.1695C40.0593 23.966 40.6641 24.7267 41.4816 24.7267H49.7196C54.6522 24.7267 57.7098 21.8998 57.7098 18.2653C57.7098 16.0442 56.354 14.9769 54.8541 14.8615ZM47.3198 13.1331L48.2717 8.97936H52.6273C53.6657 8.97936 54.3869 9.61396 54.3869 10.5947C54.3869 12.037 53.1465 13.1331 51.5023 13.1331H47.3198ZM45.4685 21.2259L46.4493 16.9857H50.978C52.1318 16.9857 52.8529 17.6202 52.8529 18.6298C52.8529 20.0721 51.7568 21.2259 49.9107 21.2259H45.4685Z" fill="white"/>
<path fill-rule="evenodd" clip-rule="evenodd" d="M23.3236 15.0813H3.57779L0.735533 29.8548L0.733184 29.8548L0.447644 31.339C-0.0806721 34.0851 3.03577 35.4604 5.38674 33.5186L9.82253 29.8548L20.4814 29.8548C24.6358 29.8548 28.6398 26.5477 29.4247 22.4681C30.2096 18.3885 27.478 15.0813 23.3236 15.0813Z" fill="url(#paint0_linear)"/>
<path d="M11.6209 0C8.78128 0 6.04438 2.26054 5.50791 5.04905L3.57782 15.0813H23.1669C27.4079 15.0813 31.4954 11.7052 32.2966 7.54064C33.0978 3.37606 30.3093 0 26.0684 0H11.6209Z" fill="url(#paint1_linear)"/>
<path d="M3.57782 15.0813L2.35977 21.4121C2.17554 22.3697 3.26225 22.8492 4.08203 22.1721L12.6671 15.0813L3.57782 15.0813Z" fill="url(#paint2_linear)"/>
<defs>
<linearGradient id="paint0_linear" x1="14.7843" y1="15.0813" x2="13.9077" y2="37.5525" gradientUnits="userSpaceOnUse">
<stop stop-color="#B547E9"/>
<stop offset="1" stop-color="#4958F5"/>
</linearGradient>
<linearGradient id="paint1_linear" x1="18.6572" y1="-2.66418" x2="18.0118" y2="32.5512" gradientUnits="userSpaceOnUse">
<stop stop-color="#FF9B71"/>
<stop offset="1" stop-color="#DB48F3"/>
</linearGradient>
<linearGradient id="paint2_linear" x1="18.6572" y1="-2.66418" x2="18.0118" y2="32.5512" gradientUnits="userSpaceOnUse">
<stop stop-color="#FF9B71"/>
<stop offset="1" stop-color="#DB48F3"/>
</linearGradient>
</defs>
</svg>
