<svg width="111" height="110" viewBox="0 0 111 110" fill="none" xmlns="http://www.w3.org/2000/svg">
<path d="M77.6812 62.1504C77.6812 58.8417 78.388 55.7888 79.804 53.0024C81.2143 50.1886 83.1875 47.9828 85.7251 46.3838C88.2792 44.78 91.1899 43.9757 94.4509 43.9757C96.1806 43.9757 97.958 44.1887 99.7827 44.6039C101.613 44.9989 103.151 45.6854 104.402 46.661C105.647 47.6414 106.269 48.9633 106.269 50.6312C106.269 51.9626 105.875 53.0761 105.087 53.9661C104.316 54.8619 103.348 55.3093 102.187 55.3093C101.624 55.3093 101.075 55.2189 100.534 55.0322C100.012 54.8453 99.4844 54.6431 98.9416 54.4349C98.426 54.2064 97.8616 54.0196 97.2606 53.8756C96.676 53.7318 95.9419 53.6567 95.0473 53.6567C93.4246 53.6567 92.0524 54.041 90.9297 54.8133C89.8284 55.5592 88.998 56.5823 88.4397 57.8721C87.8968 59.1404 87.6247 60.5681 87.6247 62.1504C87.6247 63.6911 87.8968 65.1237 88.4397 66.4562C88.9766 67.7672 89.7583 68.8119 90.7752 69.5792C91.8123 70.3513 93.042 70.7356 94.4509 70.7356C96.0536 70.7356 97.6656 70.4312 99.2884 69.8291C100.905 69.2271 101.874 68.9237 102.187 68.9237C102.932 68.9237 103.619 69.1415 104.241 69.5792C104.87 70.0158 105.353 70.5918 105.71 71.2949C106.083 71.9826 106.269 72.6905 106.269 73.421C106.269 74.9605 105.593 76.2609 104.241 77.321C102.912 78.387 101.326 79.1544 99.4739 79.6339C97.6229 80.1347 95.9513 80.3846 94.4509 80.3846C91.9823 80.3846 89.7156 79.9266 87.6568 79.0105C85.6194 78.0944 83.8421 76.794 82.3263 75.1045C80.8091 73.3996 79.6544 71.4436 78.8668 69.2378C78.0743 67.0106 77.6812 64.6442 77.6812 62.1504ZM56.5442 74.481V49.8151C56.5442 48.3398 57.0016 47.1083 57.9164 46.134C58.8513 45.1322 60.0465 44.636 61.5017 44.636C62.7064 44.636 63.7459 44.956 64.6191 45.6009C65.5125 46.2244 66.1361 46.9644 66.4889 47.8174C68.631 45.2595 70.9286 43.9757 73.3817 43.9757C74.7278 43.9757 75.9145 44.4659 76.9363 45.4462C77.9734 46.4052 78.489 47.6414 78.489 49.1596C78.489 50.7217 78.0054 51.8567 77.0265 52.5646C76.069 53.2737 74.483 53.9506 72.2591 54.5955C69.9924 55.2403 68.4658 56.0494 67.6723 57.0298C66.8845 57.984 66.4889 59.7162 66.4889 62.2099V74.481C66.4889 75.9575 66.022 77.2091 65.0871 78.2276C64.1723 79.2293 62.9773 79.7243 61.5017 79.7243C60.0465 79.7243 58.8513 79.2293 57.9164 78.2276C57.0016 77.2091 56.5442 75.9575 56.5442 74.481ZM42.1718 74.481V49.8151C42.1718 48.3398 42.6304 47.1083 43.5439 46.134C44.4789 45.1322 45.674 44.636 47.1292 44.636C48.6048 44.636 49.8 45.1322 50.7147 46.134C51.6497 47.1083 52.1177 48.3398 52.1177 49.8151V74.481C52.1177 75.9575 51.6497 77.2091 50.7147 78.2276C49.8 79.2293 48.6048 79.7243 47.1292 79.7243C45.674 79.7243 44.4789 79.2293 43.5439 78.2276C42.6304 77.2091 42.1718 75.9575 42.1718 74.481ZM41.2059 35.6094C41.2059 33.9842 41.788 32.5827 42.9523 31.3953C44.1154 30.2067 45.5088 29.6154 47.1292 29.6154C48.771 29.6154 50.1741 30.2008 51.3384 31.3631C52.5015 32.5291 53.0836 33.9473 53.0836 35.6094C53.0836 37.3357 52.5015 38.7742 51.3384 39.9198C50.1741 41.0655 48.771 41.6367 47.1292 41.6367C45.5088 41.6367 44.1154 41.0548 42.9523 39.889C41.788 38.7218 41.2059 37.2989 41.2059 35.6094ZM9.09424 74.8272L10.2169 66.4241H7.81713C6.75625 66.4241 5.97693 66.1254 5.47797 65.5187C4.98019 64.8952 4.73071 64.1599 4.73071 63.3022C4.73071 62.4491 4.98019 61.7352 5.47797 61.1487C5.97693 60.5467 6.75625 60.2432 7.81713 60.2432H11.0592L12.088 52.5646H9.65616C8.61666 52.5646 7.84804 52.2611 7.34908 51.6591C6.85012 51.0358 6.60063 50.2945 6.60063 49.4426C6.60063 48.5682 6.85012 47.8389 7.34908 47.2583C7.84804 46.6503 8.61666 46.3517 9.65616 46.3517H13.023L14.3951 36.3292C14.54 35.2691 14.8727 34.4423 15.3918 33.8617C15.9324 33.2811 16.7853 32.9883 17.9485 32.9883C18.78 32.9883 19.4655 33.2275 20.006 33.707C20.5466 34.165 20.8162 34.7992 20.8162 35.6094C20.8162 35.9663 20.733 36.7337 20.5679 37.9222L19.4144 46.3517H25.1821L26.5223 36.3292C26.6671 35.2691 26.9998 34.4423 27.5189 33.8617C28.0595 33.2811 28.9113 32.9883 30.0756 32.9883C30.9072 32.9883 31.5926 33.2275 32.1331 33.707C32.6737 34.1865 32.9433 34.8205 32.9433 35.6094C32.9433 35.9663 32.8614 36.7337 32.6951 37.9222L31.5415 46.3517H33.9734C35.0533 46.3517 35.8326 46.6503 36.3113 47.2583C36.8104 47.8389 37.0599 48.5682 37.0599 49.4426C37.0599 50.2945 36.8104 51.0358 36.3113 51.6591C35.8123 52.2611 35.033 52.5646 33.9734 52.5646H30.7301L29.7025 60.2432H32.1331C33.2142 60.2432 33.9935 60.536 34.4712 61.1177C34.9498 61.7031 35.1887 62.4277 35.1887 63.3022C35.1887 64.1754 34.9392 64.9166 34.4403 65.5187C33.9626 66.1254 33.1928 66.4241 32.1331 66.4241H28.7354L27.3954 76.4156C27.2493 77.4602 26.9166 78.2692 26.3975 78.851C25.8771 79.4364 25.0253 79.7243 23.841 79.7243C23.0093 79.7243 22.3131 79.4946 21.7524 79.0426C21.2118 78.5631 20.941 77.9182 20.941 77.1032C20.941 76.6869 21.0348 75.9302 21.2214 74.8272L22.375 66.4241H16.6083L15.2672 76.4156C15.1222 77.4816 14.7788 78.3014 14.2383 78.882C13.7192 79.4471 12.8673 79.7243 11.6817 79.7243C10.8715 79.7243 10.186 79.4946 9.62411 79.0426C9.08475 78.5631 8.81388 77.9182 8.81388 77.1032C8.81388 76.6869 8.90772 75.9302 9.09424 74.8272ZM23.3111 60.2432L24.3399 52.5646H18.5412L17.5124 60.2432H23.3111Z" fill="white"/>
</svg>
